<svg id="visual" viewBox="0 0 900 600" width="900" height="600" xmlns="http://www.w3.org/2000/svg" xmlns:xlink="http://www.w3.org/1999/xlink" version="1.1"><g stroke-width="1" stroke-linejoin="bevel"><path d="M452.8 259.7L425 233.7L424.8 257.2Z" fill="#008d6f" stroke="#009473"></path><path d="M452.8 259.7L499 197.6L425 233.7Z" fill="#3d9670" stroke="#009473"></path><path d="M402 152.1L375.5 218.6L425 233.7Z" fill="#ffe9c9" stroke="#009473"></path><path d="M425 233.7L375.5 218.6L424.8 257.2Z" fill="#efdfb9" stroke="#009473"></path><path d="M452.8 259.7L515 256.2L509.5 242.7Z" fill="#ded5aa" stroke="#009473"></path><path d="M559.8 195.6L499 197.6L509.5 242.7Z" fill="#efdfb9" stroke="#009473"></path><path d="M509.5 242.7L499 197.6L452.8 259.7Z" fill="#ded5aa" stroke="#009473"></path><path d="M499 197.6L490.3 181.6L425 233.7Z" fill="#ded5aa" stroke="#009473"></path><path d="M375.5 218.6L354.5 245.7L424.8 257.2Z" fill="#3d9670" stroke="#009473"></path><path d="M559.8 195.6L495.3 166.2L499 197.6Z" fill="#efdfb9" stroke="#009473"></path><path d="M499 197.6L495.3 166.2L490.3 181.6Z" fill="#8db17e" stroke="#009473"></path><path d="M490.3 181.6L402 152.1L425 233.7Z" fill="#ffe9c9" stroke="#009473"></path><path d="M402 152.1L349.5 205.2L375.5 218.6Z" fill="#b8c390" stroke="#009473"></path><path d="M375.5 218.6L349.5 205.2L354.5 245.7Z" fill="#75a877" stroke="#009473"></path><path d="M495.3 166.2L402 152.1L490.3 181.6Z" fill="#3d9670" stroke="#009473"></path><path d="M459.3 369.4L530.5 303.3L452.8 259.7Z" fill="#5ba073" stroke="#009473"></path><path d="M452.8 259.7L530.5 303.3L515 256.2Z" fill="#008d6f" stroke="#009473"></path><path d="M515 256.2L559.8 195.6L509.5 242.7Z" fill="#5ba073" stroke="#009473"></path><path d="M459.3 369.4L452.8 259.7L424.8 257.2Z" fill="#5ba073" stroke="#009473"></path><path d="M354.5 245.7L370.8 328.3L424.8 257.2Z" fill="#3d9670" stroke="#009473"></path><path d="M370.8 328.3L459.3 369.4L424.8 257.2Z" fill="#5ba073" stroke="#009473"></path><path d="M553.3 358.8L550.3 306.7L530.5 303.3Z" fill="#ded5aa" stroke="#009473"></path><path d="M530.5 303.3L573.3 267.3L515 256.2Z" fill="#ded5aa" stroke="#009473"></path><path d="M573.3 267.3L559.8 195.6L515 256.2Z" fill="#008d6f" stroke="#009473"></path><path d="M370.8 328.3L388 368.3L459.3 369.4Z" fill="#8db17e" stroke="#009473"></path><path d="M550.3 306.7L573.3 267.3L530.5 303.3Z" fill="#b8c390" stroke="#009473"></path><path d="M402 152.1L326.8 169.6L349.5 205.2Z" fill="#8db17e" stroke="#009473"></path><path d="M280 282.7L293.3 290.3L354.5 245.7Z" fill="#b8c390" stroke="#009473"></path><path d="M354.5 245.7L293.3 290.3L370.8 328.3Z" fill="#75a877" stroke="#009473"></path><path d="M388 368.3L432 384.4L459.3 369.4Z" fill="#b8c390" stroke="#009473"></path><path d="M399.8 381.8L436.8 387.4L432 384.4Z" fill="#b8c390" stroke="#009473"></path><path d="M432 384.4L436.8 387.4L459.3 369.4Z" fill="#5ba073" stroke="#009473"></path><path d="M459.3 369.4L513 369.8L530.5 303.3Z" fill="#008d6f" stroke="#009473"></path><path d="M388 368.3L399.8 381.8L432 384.4Z" fill="#008d6f" stroke="#009473"></path><path d="M491 443.9L513 369.8L459.3 369.4Z" fill="#8db17e" stroke="#009473"></path><path d="M503.5 107.1L412.8 101.5L495.3 166.2Z" fill="#5ba073" stroke="#009473"></path><path d="M495.3 166.2L412.8 101.5L402 152.1Z" fill="#8db17e" stroke="#009473"></path><path d="M402 152.1L375.8 104.1L326.8 169.6Z" fill="#5ba073" stroke="#009473"></path><path d="M486.3 56.5L409 98.5L412.8 101.5Z" fill="#b8c390" stroke="#009473"></path><path d="M412.8 101.5L375.8 104.1L402 152.1Z" fill="#b8c390" stroke="#009473"></path><path d="M515.5 99.6L503.5 107.1L547.3 102.1Z" fill="#75a877" stroke="#009473"></path><path d="M280 282.7L354.5 245.7L262.3 226.7Z" fill="#cccc9c" stroke="#009473"></path><path d="M370.8 328.3L323.5 390.8L388 368.3Z" fill="#5ba073" stroke="#009473"></path><path d="M388 368.3L338.3 431.4L399.8 381.8Z" fill="#8db17e" stroke="#009473"></path><path d="M409 98.5L375.8 104.1L412.8 101.5Z" fill="#ded5aa" stroke="#009473"></path><path d="M607 336.3L573.3 267.3L550.3 306.7Z" fill="#b8c390" stroke="#009473"></path><path d="M607 336.3L598.5 246.2L573.3 267.3Z" fill="#b8c390" stroke="#009473"></path><path d="M573.3 267.3L598.5 246.2L559.8 195.6Z" fill="#b8c390" stroke="#009473"></path><path d="M547.3 102.1L503.5 107.1L495.3 166.2Z" fill="#008d6f" stroke="#009473"></path><path d="M513 369.8L553.3 358.8L530.5 303.3Z" fill="#ded5aa" stroke="#009473"></path><path d="M262.3 226.7L354.5 245.7L349.5 205.2Z" fill="#ded5aa" stroke="#009473"></path><path d="M293.3 290.3L301.5 355.3L370.8 328.3Z" fill="#8db17e" stroke="#009473"></path><path d="M547.3 102.1L495.3 166.2L559.8 195.6Z" fill="#ffe9c9" stroke="#009473"></path><path d="M503.5 107.1L486.3 56.5L412.8 101.5Z" fill="#3d9670" stroke="#009473"></path><path d="M515.5 99.6L507.5 92.5L503.5 107.1Z" fill="#75a877" stroke="#009473"></path><path d="M280 282.7L301.5 355.3L293.3 290.3Z" fill="#8db17e" stroke="#009473"></path><path d="M285 153.2L262.3 226.7L326.8 169.6Z" fill="#8db17e" stroke="#009473"></path><path d="M326.8 169.6L262.3 226.7L349.5 205.2Z" fill="#5ba073" stroke="#009473"></path><path d="M280 282.7L230.3 271.2L301.5 355.3Z" fill="#5ba073" stroke="#009473"></path><path d="M650 139.6L547.3 102.1L559.8 195.6Z" fill="#ffe9c9" stroke="#009473"></path><path d="M515.5 99.6L547.3 102.1L507.5 92.5Z" fill="#efdfb9" stroke="#009473"></path><path d="M289.3 129.1L285 153.2L326.8 169.6Z" fill="#a3ba86" stroke="#009473"></path><path d="M301.5 355.3L323.5 390.8L370.8 328.3Z" fill="#75a877" stroke="#009473"></path><path d="M459.8 504.5L491 443.9L422.8 505.9Z" fill="#b8c390" stroke="#009473"></path><path d="M553.3 358.8L607 336.3L550.3 306.7Z" fill="#5ba073" stroke="#009473"></path><path d="M295.5 116.5L289.3 129.1L326.8 169.6Z" fill="#8db17e" stroke="#009473"></path><path d="M285 153.2L206.8 199.6L262.3 226.7Z" fill="#efdfb9" stroke="#009473"></path><path d="M375.8 104.1L295.5 116.5L326.8 169.6Z" fill="#5ba073" stroke="#009473"></path><path d="M320.3 61.5L295.5 116.5L375.8 104.1Z" fill="#5ba073" stroke="#009473"></path><path d="M635.8 199.2L628 198.2L598.5 246.2Z" fill="#8db17e" stroke="#009473"></path><path d="M598.5 246.2L628 198.2L559.8 195.6Z" fill="#3d9670" stroke="#009473"></path><path d="M547.3 102.1L486.3 56.5L507.5 92.5Z" fill="#75a877" stroke="#009473"></path><path d="M507.5 92.5L486.3 56.5L503.5 107.1Z" fill="#008d6f" stroke="#009473"></path><path d="M403.5 0L320.3 61.5L375.8 104.1Z" fill="#8db17e" stroke="#009473"></path><path d="M261.3 97.6L273 142.6L289.3 129.1Z" fill="#ded5aa" stroke="#009473"></path><path d="M289.3 129.1L273 142.6L285 153.2Z" fill="#ded5aa" stroke="#009473"></path><path d="M671.8 214.7L635.8 199.2L598.5 246.2Z" fill="#8db17e" stroke="#009473"></path><path d="M628 198.2L650 139.6L559.8 195.6Z" fill="#ded5aa" stroke="#009473"></path><path d="M422.8 505.9L436.8 387.4L399.8 381.8Z" fill="#008d6f" stroke="#009473"></path><path d="M436.8 387.4L491 443.9L459.3 369.4Z" fill="#3d9670" stroke="#009473"></path><path d="M513 369.8L595.5 429.8L553.3 358.8Z" fill="#75a877" stroke="#009473"></path><path d="M625.8 397.4L636.8 350.3L607 336.3Z" fill="#ffe9c9" stroke="#009473"></path><path d="M212.8 227.7L230.3 271.2L262.3 226.7Z" fill="#cccc9c" stroke="#009473"></path><path d="M262.3 226.7L230.3 271.2L280 282.7Z" fill="#ded5aa" stroke="#009473"></path><path d="M337.5 454.9L338.3 431.4L290.5 431.4Z" fill="#b8c390" stroke="#009473"></path><path d="M338.3 431.4L323.5 390.8L290.5 431.4Z" fill="#b8c390" stroke="#009473"></path><path d="M323.5 390.8L338.3 431.4L388 368.3Z" fill="#b8c390" stroke="#009473"></path><path d="M403.5 0L375.8 104.1L409 98.5Z" fill="#efdfb9" stroke="#009473"></path><path d="M295.5 116.5L261.3 97.6L289.3 129.1Z" fill="#efdfb9" stroke="#009473"></path><path d="M625.8 397.4L607 336.3L553.3 358.8Z" fill="#a3ba86" stroke="#009473"></path><path d="M607 336.3L676.3 289.3L598.5 246.2Z" fill="#efdfb9" stroke="#009473"></path><path d="M206.8 199.6L285 153.2L273 142.6Z" fill="#75a877" stroke="#009473"></path><path d="M206.8 199.6L212.8 227.7L262.3 226.7Z" fill="#a3ba86" stroke="#009473"></path><path d="M270.5 86.1L261.3 97.6L295.5 116.5Z" fill="#5ba073" stroke="#009473"></path><path d="M320.3 61.5L270.5 86.1L295.5 116.5Z" fill="#5ba073" stroke="#009473"></path><path d="M290.5 431.4L323.5 390.8L301.5 355.3Z" fill="#ded5aa" stroke="#009473"></path><path d="M338.3 431.4L337.5 454.9L399.8 381.8Z" fill="#b8c390" stroke="#009473"></path><path d="M676.3 289.3L671.8 214.7L598.5 246.2Z" fill="#5ba073" stroke="#009473"></path><path d="M664.3 160.6L650 139.6L628 198.2Z" fill="#8db17e" stroke="#009473"></path><path d="M664.3 160.6L628 198.2L635.8 199.2Z" fill="#efdfb9" stroke="#009473"></path><path d="M509.3 0L482 0L486.3 56.5Z" fill="#8db17e" stroke="#009473"></path><path d="M202.8 122.1L206.8 199.6L273 142.6Z" fill="#a3ba86" stroke="#009473"></path><path d="M262.3 446.8L290.5 431.4L301.5 355.3Z" fill="#8db17e" stroke="#009473"></path><path d="M173 335.3L301.5 355.3L230.3 271.2Z" fill="#75a877" stroke="#009473"></path><path d="M671.8 214.7L664.3 160.6L635.8 199.2Z" fill="#b8c390" stroke="#009473"></path><path d="M595.5 429.8L625.8 397.4L553.3 358.8Z" fill="#75a877" stroke="#009473"></path><path d="M636.8 350.3L676.3 289.3L607 336.3Z" fill="#b8c390" stroke="#009473"></path><path d="M689.3 324.7L676.3 289.3L636.8 350.3Z" fill="#cccc9c" stroke="#009473"></path><path d="M671.8 214.7L665 160.1L664.3 160.6Z" fill="#ded5aa" stroke="#009473"></path><path d="M664.3 160.6L665 160.1L650 139.6Z" fill="#ded5aa" stroke="#009473"></path><path d="M491 443.9L595.5 429.8L513 369.8Z" fill="#ffe9c9" stroke="#009473"></path><path d="M490.3 488.9L528.5 473.9L491 443.9Z" fill="#a3ba86" stroke="#009473"></path><path d="M491 443.9L528.5 473.9L595.5 429.8Z" fill="#008d6f" stroke="#009473"></path><path d="M482 0L416.8 0L486.3 56.5Z" fill="#cccc9c" stroke="#009473"></path><path d="M486.3 56.5L416.8 0L409 98.5Z" fill="#a3ba86" stroke="#009473"></path><path d="M320.3 61.5L251 73.1L270.5 86.1Z" fill="#3d9670" stroke="#009473"></path><path d="M416.8 0L403.5 0L409 98.5Z" fill="#ded5aa" stroke="#009473"></path><path d="M459.8 504.5L490.3 488.9L491 443.9Z" fill="#cccc9c" stroke="#009473"></path><path d="M509.3 0L486.3 56.5L547.3 102.1Z" fill="#a3ba86" stroke="#009473"></path><path d="M633.8 532.9L617.8 424.8L595.5 429.8Z" fill="#3d9670" stroke="#009473"></path><path d="M595.5 429.8L617.8 424.8L625.8 397.4Z" fill="#a3ba86" stroke="#009473"></path><path d="M670 400.8L689.3 324.7L636.8 350.3Z" fill="#efdfb9" stroke="#009473"></path><path d="M599.5 0L509.3 0L547.3 102.1Z" fill="#8db17e" stroke="#009473"></path><path d="M270.5 86.1L251 73.1L261.3 97.6Z" fill="#b8c390" stroke="#009473"></path><path d="M202.8 122.1L179.5 192.6L206.8 199.6Z" fill="#ded5aa" stroke="#009473"></path><path d="M281.3 0L251 73.1L320.3 61.5Z" fill="#ffe9c9" stroke="#009473"></path><path d="M528.5 473.9L557.5 475.4L595.5 429.8Z" fill="#ffe9c9" stroke="#009473"></path><path d="M573.3 520.5L557.5 475.4L528.5 473.9Z" fill="#75a877" stroke="#009473"></path><path d="M179.5 192.6L182.8 271.2L212.8 227.7Z" fill="#cccc9c" stroke="#009473"></path><path d="M212.8 227.7L182.8 271.2L230.3 271.2Z" fill="#5ba073" stroke="#009473"></path><path d="M422.8 505.9L491 443.9L436.8 387.4Z" fill="#a3ba86" stroke="#009473"></path><path d="M490.3 488.9L573.3 520.5L528.5 473.9Z" fill="#75a877" stroke="#009473"></path><path d="M311.3 532.5L422.8 505.9L337.5 454.9Z" fill="#ffe9c9" stroke="#009473"></path><path d="M337.5 454.9L422.8 505.9L399.8 381.8Z" fill="#3d9670" stroke="#009473"></path><path d="M670 400.8L636.8 350.3L625.8 397.4Z" fill="#008d6f" stroke="#009473"></path><path d="M779.3 183.2L734.5 165.1L671.8 214.7Z" fill="#b8c390" stroke="#009473"></path><path d="M705 113.5L694.3 116.1L734.5 165.1Z" fill="#ded5aa" stroke="#009473"></path><path d="M202.8 122.1L273 142.6L261.3 97.6Z" fill="#b8c390" stroke="#009473"></path><path d="M206.8 199.6L179.5 192.6L212.8 227.7Z" fill="#efdfb9" stroke="#009473"></path><path d="M201 106.5L202.8 122.1L261.3 97.6Z" fill="#ffe9c9" stroke="#009473"></path><path d="M191.8 430.4L262.3 446.8L301.5 355.3Z" fill="#ded5aa" stroke="#009473"></path><path d="M290.5 431.4L261 462.9L337.5 454.9Z" fill="#ded5aa" stroke="#009473"></path><path d="M345.8 600L438 517.5L422.8 505.9Z" fill="#75a877" stroke="#009473"></path><path d="M422.8 505.9L438 517.5L459.8 504.5Z" fill="#ded5aa" stroke="#009473"></path><path d="M555.5 588.5L573.3 520.5L523.3 600Z" fill="#b8c390" stroke="#009473"></path><path d="M251 73.1L201 106.5L261.3 97.6Z" fill="#efdfb9" stroke="#009473"></path><path d="M202.8 122.1L157.5 190.2L179.5 192.6Z" fill="#a3ba86" stroke="#009473"></path><path d="M691.3 432.8L670 400.8L687.3 444.4Z" fill="#ffe9c9" stroke="#009473"></path><path d="M617.8 424.8L670 400.8L625.8 397.4Z" fill="#75a877" stroke="#009473"></path><path d="M168.8 334.3L173 321.8L128.5 316.8Z" fill="#3d9670" stroke="#009473"></path><path d="M182.8 271.2L173 321.8L230.3 271.2Z" fill="#008d6f" stroke="#009473"></path><path d="M191 470.4L261 462.9L262.3 446.8Z" fill="#cccc9c" stroke="#009473"></path><path d="M262.3 446.8L261 462.9L290.5 431.4Z" fill="#5ba073" stroke="#009473"></path><path d="M173 321.8L173 335.3L230.3 271.2Z" fill="#b8c390" stroke="#009473"></path><path d="M680.8 50.1L618.8 25.5L650 139.6Z" fill="#3d9670" stroke="#009473"></path><path d="M650 139.6L618.8 25.5L547.3 102.1Z" fill="#cccc9c" stroke="#009473"></path><path d="M128.5 316.8L173 321.8L182.8 271.2Z" fill="#cccc9c" stroke="#009473"></path><path d="M173 321.8L168.8 334.3L173 335.3Z" fill="#ded5aa" stroke="#009473"></path><path d="M173 335.3L191.8 430.4L301.5 355.3Z" fill="#efdfb9" stroke="#009473"></path><path d="M694.3 116.1L665 160.1L734.5 165.1Z" fill="#75a877" stroke="#009473"></path><path d="M665 160.1L694.3 116.1L650 139.6Z" fill="#a3ba86" stroke="#009473"></path><path d="M155.5 95.1L157.5 190.2L202.8 122.1Z" fill="#ded5aa" stroke="#009473"></path><path d="M179.5 192.6L157.5 190.2L182.8 271.2Z" fill="#ffe9c9" stroke="#009473"></path><path d="M403.5 0L281.3 0L320.3 61.5Z" fill="#008d6f" stroke="#009473"></path><path d="M251 73.1L196.8 76.5L201 106.5Z" fill="#75a877" stroke="#009473"></path><path d="M647 0L599.5 0L618.8 25.5Z" fill="#ffe9c9" stroke="#009473"></path><path d="M618.8 25.5L599.5 0L547.3 102.1Z" fill="#ffe9c9" stroke="#009473"></path><path d="M734.5 165.1L665 160.1L671.8 214.7Z" fill="#cccc9c" stroke="#009473"></path><path d="M694.3 116.1L680.8 50.1L650 139.6Z" fill="#008d6f" stroke="#009473"></path><path d="M218.8 0L196.8 76.5L251 73.1Z" fill="#ded5aa" stroke="#009473"></path><path d="M201 106.5L155.5 95.1L202.8 122.1Z" fill="#ded5aa" stroke="#009473"></path><path d="M281.3 0L262 0L251 73.1Z" fill="#3d9670" stroke="#009473"></path><path d="M792.5 272.7L671.8 214.7L676.3 289.3Z" fill="#5ba073" stroke="#009473"></path><path d="M742 316.7L676.3 289.3L689.3 324.7Z" fill="#a3ba86" stroke="#009473"></path><path d="M579.8 526.5L573.3 520.5L555.5 588.5Z" fill="#ded5aa" stroke="#009473"></path><path d="M557.5 475.4L573.3 520.5L595.5 429.8Z" fill="#ffe9c9" stroke="#009473"></path><path d="M141.8 420.8L191.8 430.4L173 335.3Z" fill="#a3ba86" stroke="#009473"></path><path d="M705 113.5L680.8 50.1L694.3 116.1Z" fill="#ded5aa" stroke="#009473"></path><path d="M672.8 0L680.8 50.1L766.5 0Z" fill="#cccc9c" stroke="#009473"></path><path d="M723.5 383.4L689.3 324.7L670 400.8Z" fill="#ded5aa" stroke="#009473"></path><path d="M737 374.4L742 316.7L689.3 324.7Z" fill="#008d6f" stroke="#009473"></path><path d="M687.3 444.4L670 400.8L617.8 424.8Z" fill="#ffe9c9" stroke="#009473"></path><path d="M483 600L490.3 488.9L459.8 504.5Z" fill="#a3ba86" stroke="#009473"></path><path d="M573.3 520.5L633.8 532.9L595.5 429.8Z" fill="#008d6f" stroke="#009473"></path><path d="M263.3 530.9L311.3 532.5L261 462.9Z" fill="#008d6f" stroke="#009473"></path><path d="M261 462.9L311.3 532.5L337.5 454.9Z" fill="#8db17e" stroke="#009473"></path><path d="M438 517.5L483 600L459.8 504.5Z" fill="#cccc9c" stroke="#009473"></path><path d="M705.3 425.9L723.5 383.4L670 400.8Z" fill="#75a877" stroke="#009473"></path><path d="M633.8 532.9L687.3 444.4L617.8 424.8Z" fill="#ded5aa" stroke="#009473"></path><path d="M691.3 432.8L705.3 425.9L670 400.8Z" fill="#75a877" stroke="#009473"></path><path d="M113.5 263.7L128.5 316.8L182.8 271.2Z" fill="#b8c390" stroke="#009473"></path><path d="M168.8 334.3L141.8 420.8L173 335.3Z" fill="#efdfb9" stroke="#009473"></path><path d="M711 459.9L705.3 425.9L691.3 432.8Z" fill="#008d6f" stroke="#009473"></path><path d="M680.8 50.1L647 0L618.8 25.5Z" fill="#5ba073" stroke="#009473"></path><path d="M136.5 25.5L155.5 95.1L196.8 76.5Z" fill="#5ba073" stroke="#009473"></path><path d="M196.8 76.5L155.5 95.1L201 106.5Z" fill="#ffe9c9" stroke="#009473"></path><path d="M157.5 190.2L113.5 263.7L182.8 271.2Z" fill="#75a877" stroke="#009473"></path><path d="M729.5 440.8L737 374.4L723.5 383.4Z" fill="#b8c390" stroke="#009473"></path><path d="M723.5 383.4L737 374.4L689.3 324.7Z" fill="#008d6f" stroke="#009473"></path><path d="M64.5 277.3L113.5 263.7L49.3 215.6Z" fill="#5ba073" stroke="#009473"></path><path d="M262 0L218.8 0L251 73.1Z" fill="#3d9670" stroke="#009473"></path><path d="M139.5 449.4L191 470.4L191.8 430.4Z" fill="#ded5aa" stroke="#009473"></path><path d="M191.8 430.4L191 470.4L262.3 446.8Z" fill="#a3ba86" stroke="#009473"></path><path d="M191.8 514.5L263.3 530.9L261 462.9Z" fill="#ffe9c9" stroke="#009473"></path><path d="M263.3 530.9L318.5 558.5L311.3 532.5Z" fill="#8db17e" stroke="#009473"></path><path d="M311.3 532.5L318.5 558.5L422.8 505.9Z" fill="#008d6f" stroke="#009473"></path><path d="M755.3 116.5L680.8 50.1L705 113.5Z" fill="#ffe9c9" stroke="#009473"></path><path d="M680.8 50.1L672.8 0L647 0Z" fill="#efdfb9" stroke="#009473"></path><path d="M779.3 183.2L755.3 116.5L734.5 165.1Z" fill="#ded5aa" stroke="#009473"></path><path d="M734.5 165.1L755.3 116.5L705 113.5Z" fill="#5ba073" stroke="#009473"></path><path d="M792.5 272.7L779.3 183.2L671.8 214.7Z" fill="#75a877" stroke="#009473"></path><path d="M792.5 272.7L676.3 289.3L742 316.7Z" fill="#b8c390" stroke="#009473"></path><path d="M687.3 444.4L711 459.9L691.3 432.8Z" fill="#a3ba86" stroke="#009473"></path><path d="M705.3 425.9L729.5 440.8L723.5 383.4Z" fill="#5ba073" stroke="#009473"></path><path d="M716 494.5L711 459.9L687.3 444.4Z" fill="#cccc9c" stroke="#009473"></path><path d="M128.5 316.8L141.8 420.8L168.8 334.3Z" fill="#008d6f" stroke="#009473"></path><path d="M139.5 449.4L141.8 420.8L123.8 440.9Z" fill="#efdfb9" stroke="#009473"></path><path d="M579.8 526.5L633.8 532.9L573.3 520.5Z" fill="#ded5aa" stroke="#009473"></path><path d="M628 600L633.8 532.9L579.8 526.5Z" fill="#b8c390" stroke="#009473"></path><path d="M711 459.9L729.5 440.8L705.3 425.9Z" fill="#5ba073" stroke="#009473"></path><path d="M793.5 322.3L792.5 272.7L742 316.7Z" fill="#efdfb9" stroke="#009473"></path><path d="M780.8 362.8L742 316.7L737 374.4Z" fill="#ded5aa" stroke="#009473"></path><path d="M345.8 600L483 600L438 517.5Z" fill="#ffe9c9" stroke="#009473"></path><path d="M823.5 199.2L791.8 180.6L779.3 183.2Z" fill="#5ba073" stroke="#009473"></path><path d="M779.3 183.2L803.8 158.1L755.3 116.5Z" fill="#efdfb9" stroke="#009473"></path><path d="M729.5 440.8L780.8 362.8L737 374.4Z" fill="#ffe9c9" stroke="#009473"></path><path d="M780.8 362.8L793.5 322.3L742 316.7Z" fill="#5ba073" stroke="#009473"></path><path d="M823.5 199.2L803.8 158.1L791.8 180.6Z" fill="#efdfb9" stroke="#009473"></path><path d="M518.5 600L573.3 520.5L490.3 488.9Z" fill="#3d9670" stroke="#009473"></path><path d="M483 600L518.5 600L490.3 488.9Z" fill="#cccc9c" stroke="#009473"></path><path d="M123.8 440.9L141.8 420.8L57.3 368.3Z" fill="#ffe9c9" stroke="#009473"></path><path d="M141.8 420.8L139.5 449.4L191.8 430.4Z" fill="#b8c390" stroke="#009473"></path><path d="M191 470.4L191.8 514.5L261 462.9Z" fill="#b8c390" stroke="#009473"></path><path d="M518.5 600L523.3 600L573.3 520.5Z" fill="#3d9670" stroke="#009473"></path><path d="M173.5 505.9L191.8 514.5L191 470.4Z" fill="#ffe9c9" stroke="#009473"></path><path d="M335.3 600L345.8 600L318.5 558.5Z" fill="#b8c390" stroke="#009473"></path><path d="M335.3 600L318.5 558.5L313.5 600Z" fill="#ded5aa" stroke="#009473"></path><path d="M318.5 558.5L345.8 600L422.8 505.9Z" fill="#efdfb9" stroke="#009473"></path><path d="M313.5 600L318.5 558.5L246 600Z" fill="#75a877" stroke="#009473"></path><path d="M139.5 449.4L173.5 505.9L191 470.4Z" fill="#ded5aa" stroke="#009473"></path><path d="M57.3 368.3L141.8 420.8L128.5 316.8Z" fill="#cccc9c" stroke="#009473"></path><path d="M711 459.9L716 494.5L729.5 440.8Z" fill="#008d6f" stroke="#009473"></path><path d="M729.5 440.8L831.8 489.9L780.8 362.8Z" fill="#3d9670" stroke="#009473"></path><path d="M712.3 509.5L716 494.5L687.3 444.4Z" fill="#ded5aa" stroke="#009473"></path><path d="M712.3 509.5L687.3 444.4L633.8 532.9Z" fill="#ffe9c9" stroke="#009473"></path><path d="M105.3 480.5L173.5 505.9L139.5 449.4Z" fill="#a3ba86" stroke="#009473"></path><path d="M246 600L318.5 558.5L263.3 530.9Z" fill="#ded5aa" stroke="#009473"></path><path d="M823.5 199.2L779.3 183.2L792.5 272.7Z" fill="#8db17e" stroke="#009473"></path><path d="M791.8 180.6L803.8 158.1L779.3 183.2Z" fill="#ffe9c9" stroke="#009473"></path><path d="M755.3 116.5L766.5 0L680.8 50.1Z" fill="#3d9670" stroke="#009473"></path><path d="M218.8 0L136.5 25.5L196.8 76.5Z" fill="#a3ba86" stroke="#009473"></path><path d="M49.3 215.6L113.5 263.7L157.5 190.2Z" fill="#3d9670" stroke="#009473"></path><path d="M246 600L263.3 530.9L191.8 514.5Z" fill="#efdfb9" stroke="#009473"></path><path d="M49.3 215.6L157.5 190.2L14.3 159.2Z" fill="#b8c390" stroke="#009473"></path><path d="M113.5 263.7L64.5 277.3L128.5 316.8Z" fill="#cccc9c" stroke="#009473"></path><path d="M675.3 600L712.3 509.5L633.8 532.9Z" fill="#75a877" stroke="#009473"></path><path d="M716 494.5L740.5 515.9L729.5 440.8Z" fill="#ffe9c9" stroke="#009473"></path><path d="M852.5 226.6L823.5 199.2L792.5 272.7Z" fill="#efdfb9" stroke="#009473"></path><path d="M14.3 159.2L157.5 190.2L155.5 95.1Z" fill="#ffe9c9" stroke="#009473"></path><path d="M555.5 588.5L628 600L579.8 526.5Z" fill="#b8c390" stroke="#009473"></path><path d="M523.3 600L628 600L555.5 588.5Z" fill="#8db17e" stroke="#009473"></path><path d="M44.3 339.7L128.5 316.8L64.5 277.3Z" fill="#8db17e" stroke="#009473"></path><path d="M44.3 339.7L57.3 368.3L128.5 316.8Z" fill="#5ba073" stroke="#009473"></path><path d="M123.8 440.9L105.3 480.5L139.5 449.4Z" fill="#ded5aa" stroke="#009473"></path><path d="M157 563.5L246 600L191.8 514.5Z" fill="#cccc9c" stroke="#009473"></path><path d="M157 563.5L191.8 514.5L173.5 505.9Z" fill="#5ba073" stroke="#009473"></path><path d="M675.3 600L740.5 515.9L712.3 509.5Z" fill="#a3ba86" stroke="#009473"></path><path d="M712.3 509.5L740.5 515.9L716 494.5Z" fill="#efdfb9" stroke="#009473"></path><path d="M780.8 362.8L837.8 324.7L793.5 322.3Z" fill="#cccc9c" stroke="#009473"></path><path d="M900 351.3L837.8 324.7L900 394.8Z" fill="#a3ba86" stroke="#009473"></path><path d="M793.5 322.3L837.8 324.7L792.5 272.7Z" fill="#a3ba86" stroke="#009473"></path><path d="M0 285.7L44.3 339.7L64.5 277.3Z" fill="#8db17e" stroke="#009473"></path><path d="M782.3 0L766.5 0L755.3 116.5Z" fill="#efdfb9" stroke="#009473"></path><path d="M782.3 0L755.3 116.5L807.8 0Z" fill="#ded5aa" stroke="#009473"></path><path d="M48.3 437.9L123.8 440.9L57.3 368.3Z" fill="#cccc9c" stroke="#009473"></path><path d="M48.3 437.9L105.3 480.5L123.8 440.9Z" fill="#ded5aa" stroke="#009473"></path><path d="M628 600L648.8 600L633.8 532.9Z" fill="#5ba073" stroke="#009473"></path><path d="M837.8 324.7L850.8 287.3L792.5 272.7Z" fill="#ffe9c9" stroke="#009473"></path><path d="M823.5 199.2L881.8 116.5L803.8 158.1Z" fill="#3d9670" stroke="#009473"></path><path d="M850.8 287.3L852.5 226.6L792.5 272.7Z" fill="#5ba073" stroke="#009473"></path><path d="M807.8 0L755.3 116.5L881.8 116.5Z" fill="#ffe9c9" stroke="#009473"></path><path d="M648.8 600L675.3 600L633.8 532.9Z" fill="#75a877" stroke="#009473"></path><path d="M105.3 480.5L157 563.5L173.5 505.9Z" fill="#5ba073" stroke="#009473"></path><path d="M850.8 287.3L872.8 271.2L852.5 226.6Z" fill="#008d6f" stroke="#009473"></path><path d="M881.8 116.5L755.3 116.5L803.8 158.1Z" fill="#a3ba86" stroke="#009473"></path><path d="M900 287.7L872.8 271.2L850.8 287.3Z" fill="#efdfb9" stroke="#009473"></path><path d="M900 287.7L850.8 287.3L837.8 324.7Z" fill="#ffe9c9" stroke="#009473"></path><path d="M27.3 84.1L14.3 159.2L155.5 95.1Z" fill="#a3ba86" stroke="#009473"></path><path d="M49.3 215.6L0 273.2L64.5 277.3Z" fill="#efdfb9" stroke="#009473"></path><path d="M218.8 0L80.5 0L136.5 25.5Z" fill="#efdfb9" stroke="#009473"></path><path d="M136.5 25.5L27.3 84.1L155.5 95.1Z" fill="#75a877" stroke="#009473"></path><path d="M28.3 446.8L48.3 437.9L0 404.4Z" fill="#ded5aa" stroke="#009473"></path><path d="M105.3 480.5L46.5 516.5L157 563.5Z" fill="#ded5aa" stroke="#009473"></path><path d="M0 394.8L57.3 368.3L44.3 339.7Z" fill="#3d9670" stroke="#009473"></path><path d="M853.5 600L795.5 503.5L740.5 515.9Z" fill="#75a877" stroke="#009473"></path><path d="M740.5 515.9L795.5 503.5L729.5 440.8Z" fill="#ded5aa" stroke="#009473"></path><path d="M0 197.6L0 273.2L49.3 215.6Z" fill="#a3ba86" stroke="#009473"></path><path d="M0 273.2L0 285.7L64.5 277.3Z" fill="#8db17e" stroke="#009473"></path><path d="M881.8 116.5L823.5 199.2L900 193.6Z" fill="#b8c390" stroke="#009473"></path><path d="M14.3 159.2L0 197.6L49.3 215.6Z" fill="#008d6f" stroke="#009473"></path><path d="M80.5 0L27.3 84.1L136.5 25.5Z" fill="#efdfb9" stroke="#009473"></path><path d="M14.3 159.2L0 102.1L0 197.6Z" fill="#efdfb9" stroke="#009473"></path><path d="M157 563.5L168.5 600L246 600Z" fill="#a3ba86" stroke="#009473"></path><path d="M112.8 600L168.5 600L157 563.5Z" fill="#cccc9c" stroke="#009473"></path><path d="M0 285.7L0 325.3L44.3 339.7Z" fill="#3d9670" stroke="#009473"></path><path d="M0 404.4L48.3 437.9L57.3 368.3Z" fill="#efdfb9" stroke="#009473"></path><path d="M48.3 437.9L46.5 516.5L105.3 480.5Z" fill="#008d6f" stroke="#009473"></path><path d="M900 287.7L900 234.2L872.8 271.2Z" fill="#008d6f" stroke="#009473"></path><path d="M872.8 271.2L900 234.2L852.5 226.6Z" fill="#cccc9c" stroke="#009473"></path><path d="M900 193.6L823.5 199.2L852.5 226.6Z" fill="#5ba073" stroke="#009473"></path><path d="M862.8 484.5L853.5 600L900 498.9Z" fill="#3d9670" stroke="#009473"></path><path d="M795.5 503.5L831.8 489.9L729.5 440.8Z" fill="#a3ba86" stroke="#009473"></path><path d="M900 351.3L900 287.7L837.8 324.7Z" fill="#efdfb9" stroke="#009473"></path><path d="M0 36.5L0 102.1L27.3 84.1Z" fill="#a3ba86" stroke="#009473"></path><path d="M27.3 84.1L0 102.1L14.3 159.2Z" fill="#a3ba86" stroke="#009473"></path><path d="M900 234.2L900 193.6L852.5 226.6Z" fill="#ded5aa" stroke="#009473"></path><path d="M0 325.3L0 394.8L44.3 339.7Z" fill="#8db17e" stroke="#009473"></path><path d="M80.5 0L42.3 0L27.3 84.1Z" fill="#efdfb9" stroke="#009473"></path><path d="M0 394.8L0 404.4L57.3 368.3Z" fill="#75a877" stroke="#009473"></path><path d="M881.8 116.5L837.5 -6.5L807.8 0Z" fill="#8db17e" stroke="#009473"></path><path d="M807.8 0L837.5 -6.5L782.3 0Z" fill="#a3ba86" stroke="#009473"></path><path d="M782.3 0L837.5 -6.5L766.5 0Z" fill="#b8c390" stroke="#009473"></path><path d="M766.5 0L837.5 -6.5L672.8 0Z" fill="#b8c390" stroke="#009473"></path><path d="M672.8 0L837.5 -6.5L647 0Z" fill="#008d6f" stroke="#009473"></path><path d="M647 0L837.5 -6.5L599.5 0Z" fill="#ffe9c9" stroke="#009473"></path><path d="M599.5 0L837.5 -6.5L509.3 0Z" fill="#75a877" stroke="#009473"></path><path d="M509.3 0L837.5 -6.5L482 0Z" fill="#8db17e" stroke="#009473"></path><path d="M482 0L837.5 -6.5L416.8 0Z" fill="#cccc9c" stroke="#009473"></path><path d="M416.8 0L837.5 -6.5L403.5 0Z" fill="#a3ba86" stroke="#009473"></path><path d="M403.5 0L837.5 -6.5L281.3 0Z" fill="#008d6f" stroke="#009473"></path><path d="M281.3 0L837.5 -6.5L262 0Z" fill="#8db17e" stroke="#009473"></path><path d="M262 0L837.5 -6.5L218.8 0Z" fill="#a3ba86" stroke="#009473"></path><path d="M218.8 0L837.5 -6.5L80.5 0Z" fill="#75a877" stroke="#009473"></path><path d="M80.5 0L837.5 -6.5L42.3 0Z" fill="#a3ba86" stroke="#009473"></path><path d="M900 394.8L837.8 324.7L780.8 362.8Z" fill="#ded5aa" stroke="#009473"></path><path d="M0 404.4L10.3 452.4L28.3 446.8Z" fill="#cccc9c" stroke="#009473"></path><path d="M28.3 446.8L46.5 516.5L48.3 437.9Z" fill="#3d9670" stroke="#009473"></path><path d="M10.3 452.4L46.5 516.5L28.3 446.8Z" fill="#a3ba86" stroke="#009473"></path><path d="M900 193.6L900 111.5L881.8 116.5Z" fill="#5ba073" stroke="#009473"></path><path d="M881.8 116.5L900 102.1L837.5 -6.5Z" fill="#cccc9c" stroke="#009473"></path><path d="M900 111.5L900 102.1L881.8 116.5Z" fill="#5ba073" stroke="#009473"></path><path d="M46.5 516.5L112.8 600L157 563.5Z" fill="#8db17e" stroke="#009473"></path><path d="M900 418.4L900 394.8L780.8 362.8Z" fill="#cccc9c" stroke="#009473"></path><path d="M862.8 484.5L831.8 489.9L853.5 600Z" fill="#efdfb9" stroke="#009473"></path><path d="M831.8 489.9L900 418.4L780.8 362.8Z" fill="#8db17e" stroke="#009473"></path><path d="M42.3 0L0 36.5L27.3 84.1Z" fill="#a3ba86" stroke="#009473"></path><path d="M42.3 0L1.3 30.5L0 36.5Z" fill="#5ba073" stroke="#009473"></path><path d="M862.8 484.5L900 418.4L831.8 489.9Z" fill="#ded5aa" stroke="#009473"></path><path d="M837.5 -6.5L0 0L42.3 0Z" fill="#5ba073" stroke="#009473"></path><path d="M42.3 0L0 0L1.3 30.5Z" fill="#5ba073" stroke="#009473"></path><path d="M1.3 30.5L0 0L0 36.5Z" fill="#cccc9c" stroke="#009473"></path><path d="M10.3 452.4L0 511.9L46.5 516.5Z" fill="#3d9670" stroke="#009473"></path><path d="M46.5 516.5L40.3 600L112.8 600Z" fill="#3d9670" stroke="#009473"></path><path d="M0 404.4L0 511.9L10.3 452.4Z" fill="#a3ba86" stroke="#009473"></path><path d="M900 498.9L900.8 480.4L862.8 484.5Z" fill="#a3ba86" stroke="#009473"></path><path d="M862.8 484.5L900.8 480.4L900 418.4Z" fill="#b8c390" stroke="#009473"></path><path d="M900 418.4L900.8 480.4L900 394.8Z" fill="#8db17e" stroke="#009473"></path><path d="M900 394.8L900.8 480.4L900 351.3Z" fill="#cccc9c" stroke="#009473"></path><path d="M900 351.3L900.8 480.4L900 287.7Z" fill="#cccc9c" stroke="#009473"></path><path d="M900 287.7L900.8 480.4L900 234.2Z" fill="#ffe9c9" stroke="#009473"></path><path d="M900 234.2L900.8 480.4L900 193.6Z" fill="#008d6f" stroke="#009473"></path><path d="M900 193.6L900.8 480.4L900 111.5Z" fill="#8db17e" stroke="#009473"></path><path d="M900 111.5L900.8 480.4L900 102.1Z" fill="#cccc9c" stroke="#009473"></path><path d="M900 102.1L900 0L837.5 -6.5Z" fill="#ded5aa" stroke="#009473"></path><path d="M900.8 480.4L900 0L900 102.1Z" fill="#cccc9c" stroke="#009473"></path><path d="M853.5 600L831.8 489.9L795.5 503.5Z" fill="#ded5aa" stroke="#009473"></path><path d="M0 582.5L40.3 600L46.5 516.5Z" fill="#8db17e" stroke="#009473"></path><path d="M675.3 600L853.5 600L740.5 515.9Z" fill="#5ba073" stroke="#009473"></path><path d="M0 511.9L0 582.5L46.5 516.5Z" fill="#a3ba86" stroke="#009473"></path><path d="M0 582.5L0 600L40.3 600Z" fill="#ffe9c9" stroke="#009473"></path><path d="M853.5 600L882.8 600L900 498.9Z" fill="#ded5aa" stroke="#009473"></path><path d="M882.8 600L900 596.5L900 498.9Z" fill="#ffe9c9" stroke="#009473"></path><path d="M900 498.9L900 596.5L900.8 480.4Z" fill="#efdfb9" stroke="#009473"></path><path d="M882.8 600L900 600L900 596.5Z" fill="#75a877" stroke="#009473"></path><path d="M900 596.5L900 600L900.8 480.4Z" fill="#ffe9c9" stroke="#009473"></path></g></svg>