<svg id="visual" viewBox="0 0 900 600" width="900" height="600" xmlns="http://www.w3.org/2000/svg" xmlns:xlink="http://www.w3.org/1999/xlink" version="1.1"><g stroke-width="1" stroke-linejoin="bevel"><path d="M552 311L566 425L691 350Z" fill="#b3b3b3" stroke="#b3b3b3"></path><path d="M566 425L772 495L691 350Z" fill="#a1a1a1" stroke="#a1a1a1"></path><path d="M378 502L556 600L566 425Z" fill="#5d5d5d" stroke="#5d5d5d"></path><path d="M566 425L556 600L772 495Z" fill="#7e7e7e" stroke="#7e7e7e"></path><path d="M701 103L488 143L552 311Z" fill="#5d5d5d" stroke="#5d5d5d"></path><path d="M552 311L378 502L566 425Z" fill="#aaaaaa" stroke="#aaaaaa"></path><path d="M900 186L701 103L691 350Z" fill="#909090" stroke="#909090"></path><path d="M691 350L701 103L552 311Z" fill="#878787" stroke="#878787"></path><path d="M312 258L378 502L552 311Z" fill="#6d6d6d" stroke="#6d6d6d"></path><path d="M556 600L776 600L772 495Z" fill="#5d5d5d" stroke="#5d5d5d"></path><path d="M900 600L900 397L772 495Z" fill="#7e7e7e" stroke="#7e7e7e"></path><path d="M772 495L900 397L691 350Z" fill="#a1a1a1" stroke="#a1a1a1"></path><path d="M900 397L900 305L691 350Z" fill="#6d6d6d" stroke="#6d6d6d"></path><path d="M488 143L312 258L552 311Z" fill="#767676" stroke="#767676"></path><path d="M235 600L394 600L378 502Z" fill="#989898" stroke="#989898"></path><path d="M378 502L394 600L556 600Z" fill="#6d6d6d" stroke="#6d6d6d"></path><path d="M900 305L900 186L691 350Z" fill="#909090" stroke="#909090"></path><path d="M488 143L326 142L312 258Z" fill="#b3b3b3" stroke="#b3b3b3"></path><path d="M304 0L326 142L488 143Z" fill="#989898" stroke="#989898"></path><path d="M741 0L538 0L701 103Z" fill="#656565" stroke="#656565"></path><path d="M701 103L538 0L488 143Z" fill="#7e7e7e" stroke="#7e7e7e"></path><path d="M776 600L900 600L772 495Z" fill="#989898" stroke="#989898"></path><path d="M900 0L741 0L701 103Z" fill="#b3b3b3" stroke="#b3b3b3"></path><path d="M312 258L209 413L378 502Z" fill="#a1a1a1" stroke="#a1a1a1"></path><path d="M147 295L209 413L312 258Z" fill="#a1a1a1" stroke="#a1a1a1"></path><path d="M209 413L235 600L378 502Z" fill="#878787" stroke="#878787"></path><path d="M900 186L900 0L701 103Z" fill="#aaaaaa" stroke="#aaaaaa"></path><path d="M143 178L147 295L312 258Z" fill="#989898" stroke="#989898"></path><path d="M209 413L0 470L235 600Z" fill="#767676" stroke="#767676"></path><path d="M538 0L304 0L488 143Z" fill="#7e7e7e" stroke="#7e7e7e"></path><path d="M326 142L143 178L312 258Z" fill="#656565" stroke="#656565"></path><path d="M304 0L143 178L326 142Z" fill="#878787" stroke="#878787"></path><path d="M304 0L125 0L143 178Z" fill="#878787" stroke="#878787"></path><path d="M0 206L0 309L147 295Z" fill="#6d6d6d" stroke="#6d6d6d"></path><path d="M0 206L147 295L143 178Z" fill="#878787" stroke="#878787"></path><path d="M147 295L0 470L209 413Z" fill="#5d5d5d" stroke="#5d5d5d"></path><path d="M0 309L0 470L147 295Z" fill="#989898" stroke="#989898"></path><path d="M0 0L0 206L143 178Z" fill="#656565" stroke="#656565"></path><path d="M0 470L0 600L235 600Z" fill="#a1a1a1" stroke="#a1a1a1"></path><path d="M125 0L0 0L143 178Z" fill="#656565" stroke="#656565"></path></g></svg>